<?xml version="1.0" encoding="UTF-8" standalone="no"?>
<!DOCTYPE svg PUBLIC "-//W3C//DTD SVG 1.1//EN" "http://www.w3.org/Graphics/SVG/1.1/DTD/svg11.dtd">
<svg width="100%" height="100%" viewBox="0 0 2134 2134" version="1.1" xmlns="http://www.w3.org/2000/svg" xmlns:xlink="http://www.w3.org/1999/xlink" xml:space="preserve" xmlns:serif="http://www.serif.com/" style="fill-rule:evenodd;clip-rule:evenodd;stroke-linejoin:round;stroke-miterlimit:2;">
    <path d="M1066.67,64.961C1655.38,64.961 2133.33,477.957 2133.33,1066.67C2133.33,1449.2 1975.7,1812.12 1592.28,1872.04C1407.58,1900.9 1272.84,2068.37 1066.67,2068.37C861.737,2068.37 714.357,1899.11 531.013,1868.48C143.355,1803.73 0,1450.45 0,1066.67C0,477.957 477.957,64.961 1066.67,64.961ZM859.545,1824.87C961.836,1765.07 965.48,1774.1 1067.53,1774.1C1166.25,1774.1 1186.08,1767.73 1270.31,1826.88C1289.85,1840.6 1352.83,1811.05 1353.48,1756.76C1354.45,1675.99 1223.02,1610.4 1062.32,1610.4C901.628,1610.4 771.165,1678.38 771.165,1759.15C771.165,1790.31 838.938,1836.92 859.545,1824.87ZM1529.74,1007.04C1388.27,1045.36 1231.54,1066.67 1066.67,1066.67C901.731,1066.67 744.953,1045.34 603.435,1007.03C521.819,984.849 436.806,1028.83 407.75,1108.25C380.978,1181.19 366.383,1259.83 366.383,1341.79C366.383,1475.16 405.027,1599.73 471.896,1705.25C482.76,1722.44 500.731,1733.9 520.907,1736.48C541.084,1739.07 561.363,1732.52 576.212,1718.62C702.692,1600.74 873.923,1528.32 1062.33,1528.32C1253.15,1528.32 1426.37,1602.62 1553.31,1723.19C1568.04,1737.25 1588.28,1744 1608.5,1741.61C1628.73,1739.21 1646.83,1727.92 1657.87,1710.81C1726.93,1604.12 1766.95,1477.52 1766.95,1341.79C1766.95,1259.91 1752.38,1181.34 1725.69,1108.46C1696.62,1028.9 1611.48,984.835 1529.74,1007.04Z" style="fill:rgb(2,18,44);"/>
    <g transform="matrix(1,0,0,1,848.136,0)">
        <path d="M561.923,1460.6C527.761,1437.07 505.349,1397.69 505.349,1353.11C505.349,1281.11 563.798,1222.66 635.791,1222.66C707.784,1222.66 766.234,1281.11 766.234,1353.11C766.234,1397.69 743.822,1437.07 709.66,1460.6C687.338,1452.21 662.272,1447.5 635.791,1447.5C609.311,1447.5 584.244,1452.21 561.923,1460.6Z" style="fill:rgb(2,18,44);"/>
    </g>
    <path d="M561.923,1460.6C527.761,1437.07 505.349,1397.69 505.349,1353.11C505.349,1281.11 563.798,1222.66 635.791,1222.66C707.784,1222.66 766.234,1281.11 766.234,1353.11C766.234,1397.69 743.822,1437.07 709.66,1460.6C687.338,1452.21 662.272,1447.5 635.791,1447.5C609.311,1447.5 584.244,1452.21 561.923,1460.6Z" style="fill:rgb(2,18,44);"/>
    <g transform="matrix(1.27429,0,0,9.43892,-273.483,-14212.3)">
        <path d="M917.85,1683.77C916.959,1683.5 917.149,1683.18 918.355,1682.93C919.561,1682.68 921.62,1682.53 923.828,1682.53C952.903,1682.53 1051.68,1682.53 1051.68,1682.53L1179.53,1682.53C1181.74,1682.53 1183.8,1682.68 1185,1682.93C1186.21,1683.18 1186.4,1683.5 1185.51,1683.77C1174.48,1687.18 1118.76,1689.77 1051.68,1689.77C984.597,1689.77 928.876,1687.18 917.85,1683.77Z" style="fill:rgb(2,18,44);"/>
    </g>
</svg>
